<svg xmlns="http://www.w3.org/2000/svg" pointer-events="none" class="leaflet-zoom-animated" width="1450" height="791" viewBox="-121 -66 1450 791" style="transform: translate3d(-121px, -66px, 0px);"><g><path class="leaflet-interactive" stroke="#201920" stroke-opacity="1" stroke-width="2" stroke-linecap="round" stroke-linejoin="round" fill="none" d="M361 287L361 283L360 284L358 280L362 278L361 275L364 272L365 273L368 270L370 270L370 268L373 269L375 267L376 270L382 270L387 262L392 263L395 260L396 261L396 259L402 257L405 254L412 252L412 245L415 242L414 241L417 240L417 236L414 229L414 223L410 221L410 219L423 215L431 217L432 216L429 213L429 211L435 193L442 196L451 197L455 195L457 193L455 182L459 178L461 179L464 177L466 173L465 172L467 170L473 170L475 177L480 179L482 183L488 183L489 186L492 185L492 187L495 189L497 196L499 196L500 199L500 202L498 204L499 207L497 210L498 217L499 216L502 218L503 217L509 219L519 219L530 227L535 227L534 230L536 230L537 235L543 244L549 243L568 246L584 246L591 251L592 250L597 253L607 254L608 256L612 257L615 254L632 247L642 248L653 245L661 237L665 236L668 233L664 227L665 222L668 218L681 222L685 220L690 214L697 214L703 209L702 208L707 203L711 203L712 200L716 201L718 199L723 198L725 200L732 199L731 194L721 184L716 183L712 187L703 185L700 188L697 185L697 183L699 181L706 161L714 165L721 160L727 158L728 155L726 155L726 153L731 146L733 138L736 135L738 135L739 132L738 127L736 125L733 126L733 124L741 116L742 117L758 113L762 113L766 116L767 115L769 118L772 119L778 119L778 122L780 122L781 126L784 128L783 131L785 132L784 133L787 138L786 139L788 140L788 146L791 149L792 156L794 156L793 161L796 165L803 164L803 166L809 166L809 168L811 168L815 173L819 173L817 176L820 180L818 182L822 188L833 187L838 182L840 183L847 179L854 179L851 180L850 185L852 187L846 193L847 194L844 201L845 204L838 217L835 218L828 215L826 217L827 218L821 220L824 230L824 236L822 242L817 244L818 247L815 244L815 242L812 241L811 246L809 248L808 247L805 252L797 252L800 257L798 259L791 258L789 256L790 255L788 255L789 254L786 255L781 264L774 267L768 272M401 354L398 351L398 349L401 346L403 350L405 348L405 344L400 338L400 334L403 331L397 327L395 319L390 320L383 317L383 315L380 316L378 313L379 310L376 307L374 307L374 305L366 303L368 301L370 302M627 444L625 444L626 441L624 441L626 437L624 435L619 436L615 432L613 432L611 436L606 436L603 439L601 437L599 437L596 440L593 437L591 437L590 440L585 439L585 451L581 450L581 446L573 448L573 446L571 446L570 443L566 443L566 437L568 435L563 433L563 429L561 427L563 425L557 425L553 427L552 426L554 424L552 422L554 418L553 417L561 409L560 408L562 404L562 396L559 393L559 395L557 393L557 389L553 387L553 385L551 387L552 388L550 388L551 391L548 393L541 388L537 388L534 389L534 391L531 393L526 394L520 400L516 401L508 401L508 395L504 395L503 390L498 391L489 388L485 392L483 397L481 395L482 390L480 389L478 391L473 392L469 392L464 389L462 391L460 389L460 391L456 387L453 388L452 384L449 385L444 380L444 378L440 380L435 375L433 375L433 373L432 374L431 372L429 372L428 369L423 368L421 372L407 362L404 363L401 360L401 354M636 448L631 447L627 444M639 577L638 568M647 493L650 497L651 502M655 526L653 534M667 598L675 595M697 567L702 561M721 537L724 528M725 495L725 504M733 470L728 478M748 446L742 454M753 431L755 421" id="国界"/><path class="leaflet-interactive" stroke="#201920" stroke-opacity="1" stroke-width="2" stroke-linecap="butt" stroke-linejoin="round" stroke-dasharray="4,4" stroke-dashoffset="4" fill="none" d="M370 302L372 300L370 298L370 290L368 288L365 287L363 289L361 287" id="争议"/><path class="leaflet-interactive" stroke="gray" stroke-opacity="1" stroke-width="1" stroke-linecap="round" stroke-linejoin="round" stroke-dasharray="8,4,4,4" fill="none" d="M681 442L681 442M686 439L684 439L683 442L688 442L688 440L686 439" id="港澳"/><path class="leaflet-interactive" stroke="#4190da" stroke-opacity="1" stroke-width="1" stroke-linecap="round" stroke-linejoin="round" fill="none" d="M685 441L685 439L683 440L682 437L681 442L679 444L678 443L678 445L675 444L673 446L670 445L668 447L658 449L654 452L654 454L657 457L655 459L651 459L649 453L651 449L649 447L647 449L645 449L645 447L636 448M655 451L655 451M655 451L655 453L655 451M681 442L681 442M685 441L685 441M685 441L685 441M685 441L685 441M732 402L729 403L731 403L732 406L729 407L730 410L728 412L732 412L730 414L727 413L727 415L725 415L726 416L725 417L725 415L723 419L722 418L723 419L721 422L718 421L718 423L712 430L708 430L704 436L698 436L696 438L694 436L691 439L689 437L689 439L688 440L688 438L686 440L688 440L685 441M732 402L732 402M747 380L745 384L746 387L743 390L742 389L741 392L740 391L732 404L731 403L733 401L732 402M745 306L743 308L739 308L740 311L739 310L738 313L735 314L735 312L735 314L726 325L736 333L740 343L740 347L745 351L744 352L748 354L748 356L743 354L741 356L743 358M743 358L749 363L748 364L750 366L746 364L741 367L744 368L748 373L750 373L747 375L749 376L748 380M745 306L745 306M745 306L745 306M751 280L748 284L744 286L741 285L746 282L746 280L745 281L742 278L744 278L744 276L751 269L750 266L749 267L747 265L742 264L737 269L737 271L730 274L727 277L727 279L721 283L721 285L718 284L718 282L716 282L714 286L714 290L716 290L716 292L723 293L726 296L727 295L727 297L724 298L724 300L727 303L731 303L731 301L735 298L734 297L738 296L744 298L744 300L750 299L754 301L751 306L745 306M745 306L745 306M747 380L747 380M747 380L747 380M747 380L747 380M748 380L747 380M748 380L748 380M750 372L750 372M750 372L750 372M750 372L750 372M751 372L750 372M750 372L748 370L750 370L751 372M751 372L751 372M751 370L752 369L751 370M751 370L751 370M751 280L751 280M768 272L766 276L760 276L751 280M752 365L752 365M752 365L752 365M754 364L754 364M643 447L643 447M645 452L645 452M648 462L648 462M648 566L649 564L652 565L651 564L648 566M649 477L641 473L641 467L646 462L658 459L661 463L658 466L656 472L650 475L649 477M652 562L653 561L652 562M655 455L655 455M656 451L656 451M656 562L656 562M656 560L657 559L656 560M657 452L657 450L657 452M657 458L657 458M657 560L657 560M657 453L657 453M662 496L662 496M664 486L665 485L664 486M664 556L664 556M664 491L664 491M664 550L664 550M665 564L665 564M665 562L665 562M665 491L665 491M665 490L665 490M665 561L666 562L665 561M665 493L665 493M665 555L666 556L665 555M665 490L665 490M666 563L666 563M666 490L666 490M666 493L667 492L666 493M666 491L667 490L666 491M666 494L666 494M668 560L668 560M668 492L668 492M668 594L668 594M670 554L670 554M670 554L670 554M670 594L670 594M670 488L670 488M670 497L670 497M670 486L671 487L670 486M670 553L671 554L670 553M670 593L670 593M671 553L671 553M671 580L671 580M671 487L671 487M671 488L671 488M672 492L671 493L672 492M672 447L672 447M672 579L672 579M672 495L673 494L672 495M672 491L673 490L672 491M672 548L672 548M672 580L673 579L672 580M672 578L673 579L672 578M673 554L673 554M673 577L673 577M673 584L673 584M673 447L673 447M673 580L673 580M673 582L673 582M673 491L674 492L673 491M673 584L673 584M674 446L673 447L674 446M674 492L674 492M674 489L674 489M675 447L674 446L675 447M675 553L675 553M675 447L675 447M675 488L675 488M675 562L675 562M675 548L675 548M675 548L675 548M676 585L676 585M676 557L676 557M676 465L676 465M676 547L676 547M676 445L676 445M677 444L677 444M677 445L677 445M678 444L678 444M678 574L678 574M678 560L678 560M678 560L679 559L678 560M681 442L681 442M681 542L681 542M681 569L681 569M681 553L682 552L681 553M682 551L682 551M682 444L682 444M682 498L682 498M682 444L682 444M682 444L682 444M682 444L682 444M682 564L683 563L682 564M683 566L683 566M683 440L683 440M683 443L683 443M683 468L683 468M683 442L685 442L683 442M683 544L683 544M683 499L683 499M683 497L684 498L683 497M683 561L684 560L683 561M683 564L688 561L689 562L687 564L683 564M684 553L683 554L684 553M684 496L684 496M684 554L684 554M684 553L685 554L684 553M684 500L684 500M685 544L685 544M685 537L685 537M685 560L685 560M685 495L685 495M685 442L685 442M686 444L686 444M686 549L686 549M686 441L686 441M686 444L686 444M686 554L686 554M686 494L686 494M686 443L686 443M686 499L686 499M686 542L686 542M686 546L686 546M686 442L686 442M686 498L687 499L686 498M687 547L687 547M687 533L687 533M687 439L687 439M687 536L687 536M687 441L687 441M687 543L687 543M687 538L687 538M687 532L687 532M688 494L688 494M688 545L688 545M688 498L688 498M688 546L688 546M688 537L688 537M688 538L688 538M688 545L688 545M688 560L689 559L688 560M689 545L689 545M689 545L689 545M689 533L689 533M689 545L689 545M689 554L690 553L689 554M689 498L689 498M689 545L690 544L689 545M689 533L690 532L689 533M689 440L689 440M690 564L690 564M690 559L690 559M690 541L690 541M690 532L690 532M690 536L691 535L690 536M690 493L690 493M690 546L690 546M691 559L691 559M691 535L691 535M691 496L691 496M691 538L691 538M691 567L691 567M691 561L691 561M692 537L692 537M692 494L692 494M692 565L692 565M692 535L692 535M694 557L695 558L694 557M694 556L695 557L694 556M695 543L695 543M695 512L695 512M696 549L696 549M696 545L696 545M696 557L697 556L696 557M698 540L698 540M698 540L698 540M698 540L698 540M698 541L699 540L698 541M699 540L699 540M699 547L700 546L699 547M699 537L699 537M700 452L700 452M700 451L701 452L700 451M700 550L700 550M701 544L701 544M702 548L702 548M703 553L703 553M704 546L704 546M704 551L704 551M704 546L704 546M704 541L706 541L704 541M705 546L705 546M706 540L706 540M706 492L706 492M706 532L707 533L706 532M706 455L706 455M706 552L706 552M707 454L707 456L707 454M707 540L707 540M710 431L708 431L710 431M710 539L710 539M710 538L710 538M711 542L711 542M711 539L712 538L711 539M711 535L711 535M711 544L711 544M712 536L712 536M714 539L714 539M714 536L714 536M714 502L715 501L714 502M715 538L715 538M717 422L717 422M718 422L717 421L718 422M718 423L719 422L718 423M720 422L719 423L720 422M722 283L722 283M723 282L723 282M723 282L724 283L723 282M728 433L728 433M728 416L729 415L728 416M729 432L729 432M729 429L729 429M729 429L729 429M729 412L729 412M730 407L730 407M730 430L729 431L730 430M730 411L730 411M730 412L730 412M730 403L731 402L730 403M730 414L730 414M730 414L730 414M731 403L731 403M732 412L732 412M732 407L732 407M732 409L732 409M733 431L733 431M733 406L732 407L733 406M733 404L733 404M734 404L734 404M734 403L734 403M734 401L734 401M734 317L734 317M735 400L735 400M735 441L735 441M735 400L735 400M736 297L736 297M737 405L737 405M738 295L737 294L738 295M738 444L734 437L733 430L739 420L744 415L746 415L748 417L748 422L744 434L740 439L740 445L738 444M738 294L738 294M738 295L738 295M739 293L739 293M739 268L739 268M739 291L739 291M740 290L740 290M740 291L740 291M741 310L741 310M741 391L741 391M741 395L741 395M741 391L742 390L741 391M742 391L743 390L742 391M744 355L749 358L748 359L742 355L744 355M744 348L744 348M744 438L744 438M745 443L745 443M746 444L746 444M746 358L746 358M746 380L746 380M747 384L747 384M747 360L745 359L747 360M747 359L749 360L747 359M747 371L747 371M747 383L747 383M747 384L748 383L747 384M748 386L748 386M748 371L747 372L748 371M748 360L748 360M748 386L748 386M748 413L748 413M748 419L748 419M748 371L748 371M748 361L749 360L748 361M748 369L748 369M749 380L749 380M749 374L749 374M749 372L749 372M749 370L749 370M749 366L749 366M749 372L749 372M749 372L749 372M750 372L750 372M750 372L750 372M750 370L750 370M750 369L751 370L750 369M750 370L750 370M750 377L750 377M750 375L749 374L750 375M750 375L750 375M750 372L751 373L750 372M751 373L751 373M751 373L751 373M751 375L750 374L751 375M751 373L752 372L752 374L751 373M752 282L752 282M752 372L752 372M752 368L752 368M753 368L753 368M753 282L753 282M753 281L753 281M753 366L753 366M754 282L755 281L754 282M755 371L755 371M755 284L754 283L755 284M755 365L755 365M755 365L755 365M757 278L756 279L757 278M757 279L757 279M758 284L758 284M759 411L761 411L759 411M761 410L761 410M762 409L763 410L762 409M762 412L762 412M762 411L762 411M762 412L762 412M762 276L762 276M769 409L768 410L769 409" id="海洋"/><path class="leaflet-interactive" stroke="#747569" stroke-opacity="0.6" stroke-width="1" stroke-linecap="round" stroke-linejoin="round" fill="none" d="M489 313L480 310L470 310L462 312L459 317L451 317L444 321L435 320L434 317L430 317L430 319L428 319L426 322L414 320L414 322L412 324L411 323L410 328L408 330L407 329L403 331M553 348L551 348L551 350L548 353L546 353L545 356L542 354L541 357L539 355L536 356L534 354L535 351L534 352L532 350L534 350L532 350L529 347L523 349L518 348L516 346L509 346L504 343L498 343L494 341L488 333L490 333L490 325L488 325L487 322L490 316L486 314L489 313M511 284L504 285L502 287L496 287L495 289L492 290L493 292L495 292L495 297L497 297L502 304L500 304L497 307L497 309L500 310L498 314L492 312L490 314L489 313M586 338L585 339L584 337L582 337L578 333L578 331L579 330L588 333L588 331L590 331L587 328L587 326L591 322L590 321L594 319L593 316L595 316L596 314L594 308L591 305L593 303L587 297L586 298L582 296L573 289L573 291L571 291L563 283L558 284L556 286L551 282L547 282L548 287L545 290L545 292L543 291L541 293L537 290L528 291L526 286L522 287L522 285L517 285L516 282L511 284M543 244L539 247L541 250L539 254L534 256L531 255L523 262L521 266L515 267L513 277L510 281L511 284M606 300L599 296L599 290L603 288L606 283L604 281L605 280L602 279L596 283L592 281L586 283L588 285L586 287L579 284L578 280L568 275L574 267L573 264L565 264L565 266L564 265L561 267L561 265L558 267L558 264L555 262L553 258L554 256L549 243M565 379L563 365L560 360L563 359L559 355L557 349L553 348M586 338L585 343L581 341L582 346L576 348L574 346L573 347L571 343L570 346L563 343L559 333L555 332L553 333L553 335L551 335L551 337L554 340L551 343L552 344L550 344L553 348M557 389L557 387L561 389L561 381L563 383L563 379L565 379M614 393L613 390L609 392L607 390L607 384L603 384L603 387L599 389L600 392L595 397L596 404L593 407L593 405L586 408L586 406L584 406L584 402L578 394L579 393L577 391L575 393L572 390L572 385L569 383L567 385L567 389L565 387L565 379M616 344L615 347L609 347L606 344L607 341L605 337L598 336L595 331L589 335L592 338L587 343L586 338M633 296L630 293L624 291L628 284L626 280L622 281L622 283L621 282L619 286L619 294L617 297L606 300M606 300L608 300L615 307L614 308L616 312L616 317L618 317L618 319L620 319L623 322L623 318L628 315L628 313L624 311L624 305L626 303L630 303M614 393L614 395L610 397L606 397L603 395L601 399L602 404L608 402L609 403L606 412L609 415L611 415L608 420M608 420L608 422L612 422L614 426L619 425L621 427L620 431L619 430L616 433M648 408L647 411L644 410L643 411L645 411L645 413L642 412L641 415L637 413L638 414L634 416L631 415L630 412L620 420L613 417L609 421L608 420M623 386L621 384L617 386L617 388L618 387L622 389L623 391L621 393L614 393M630 303L630 305L637 309L638 308L641 311L641 320L639 322L634 321L634 325L624 323L625 326L623 328L626 331L624 331L625 338L619 338L618 341L620 342L617 345L616 344M640 351L634 351L633 349L631 349L632 348L630 349L628 347L629 346L622 347L620 345L617 346L616 344M646 386L645 389L643 389L639 381L635 381L633 379L631 379L631 383L628 382L626 386L624 386L624 384L623 386M623 386L622 382L618 382L618 380L614 376L618 372L616 370L620 368L622 370L625 369L625 371L628 372L631 369L631 365L636 364L636 360L640 357L638 353L640 351M630 303L630 299L633 296M661 280L661 278L658 281L655 281L653 279L654 280L652 282L651 281L652 282L645 289L645 294L643 294L641 298L633 296M640 351L649 356M649 356L654 361L654 363L648 367L639 367L639 369L641 370L639 374L641 374L644 377L643 378L645 377L646 380M646 380L646 386M684 381L682 381L681 374L677 377L676 374L671 377L667 373L663 373L661 371L657 371L657 375L650 374L650 376L649 375L646 380M648 408L648 406L646 406L648 398L643 399L643 397L645 397L644 396L648 394L646 386M668 420L667 419L664 421L664 417L660 417L664 410L662 410L661 405L657 405L654 409L652 407L650 409L648 408M660 341L658 343L656 341L648 341L650 345L651 344L654 347L650 347L648 349L649 356M650 448L650 449M650 448L654 444L655 445L655 443L658 442L658 440L661 437L663 437L663 431L669 423L668 420M651 460L652 460M653 460L655 459M655 328L654 325L657 318L655 304L659 298L656 295L656 293L659 290L660 285L662 283L661 280M655 328L660 341M655 328L665 326L668 323L669 324L669 322L675 322L681 318L682 311M656 459L657 458M695 359L693 357L690 358L689 355L684 356L682 352L683 351L681 349L679 351L677 349L670 350L666 348L660 341M660 342L660 342M685 266L685 268L675 270L675 272L672 270L667 278L664 277L664 279L661 280M668 420L670 416L674 416L674 418L676 418L677 415L675 415L677 413L681 415L684 413M696 313L693 312L692 314L682 311M682 311L680 307L682 307L682 305L683 306L682 303L685 300L685 296L683 292L681 292L681 288L683 286L682 284L687 283L689 279L688 276L684 274L684 272L685 273L685 271L688 270L685 266M702 374L700 375L696 373L696 375L694 375L691 378L687 378L684 381M684 413L684 409L686 407L684 407L685 404L683 402L683 397L681 395L681 393L686 388L686 384L684 381M684 413L684 415L690 415L690 417L688 417L686 421L688 422L695 419L699 421L698 420L700 418M726 260L719 259L719 251L718 252L716 250L717 249L715 245L709 247L705 253L704 252L701 255L699 253L695 255L695 257L691 257L692 253L688 251L686 257L683 258L685 266M702 328L702 330L705 331L706 334L703 337L699 333L697 335L698 338L696 338L695 341L691 343L694 346L694 348L700 348L700 354L697 355L695 359M702 374L699 368L699 364L701 362L695 359M716 291L711 296L707 296L704 299L703 298L702 301L700 301L700 303L695 308L696 313M702 328L696 328L696 326L694 326L694 324L693 325L691 323L699 315L701 315L701 313L695 317L696 313M700 418L699 415L706 404L705 401L709 399L710 396L708 394L711 393L711 391L714 392L720 388M710 430L707 421L705 421L703 419L704 418L700 418M718 378L718 376L714 376L711 373L709 373L710 374L707 376L706 375L708 373L706 371L702 374M703 328L702 328M727 324L723 324L723 326L720 327L719 330L716 327L714 329L711 328L711 330L707 324L704 325L703 328M730 361L729 362L727 360L723 360L722 359L724 357L722 357L722 355L721 356L719 354L721 352L720 351L722 351L721 348L725 348L726 345L723 344L723 346L719 346L719 344L716 341L718 337L714 337L715 336L712 333L703 328M712 271L710 269L713 266L709 266L705 262L703 264L704 265L698 268L700 270L696 274L696 276L699 279L703 279L705 277L707 278M714 288L711 289L706 286L708 282L707 278M708 277L707 278M708 277L710 277L710 273M710 273L707 274L708 277M710 430L711 431M712 271L710 273M711 432L712 432M712 271L715 274L713 274L713 276L717 282M718 378L724 372L723 371L728 368L726 366L729 365L730 361M718 378L717 381L720 384L720 388M736 398L735 395L731 397L729 393L726 396L723 395L723 388L720 388M726 260L728 258L728 248L733 253L733 255L739 249L740 250L743 247L747 247L749 244L757 244L760 241L762 241L762 237M731 274L731 271L728 268L726 268L726 266L723 265L726 260M740 362L737 365L730 361M738 399L739 399M739 290L741 290M748 357L743 354L742 360L740 362M743 366L740 362M744 366L745 366M760 196L760 198L759 197L757 199L752 192L753 189L767 177L769 183L771 171L775 169L774 161L781 146L775 138L772 140L772 142L757 143L754 134L755 131L751 127L748 130L746 130L746 128L743 126L747 120L745 116M745 366L746 365M747 365L748 365M749 364L750 364M752 364L753 364M754 363L755 363M824 236L819 236L815 230L813 232L813 230L810 232L809 231L807 235L805 235L801 229L800 224L797 227L798 228L795 229L792 223L789 224L790 219L788 217L780 217L778 213L769 214L765 210L765 204L758 205M758 205L757 201L762 199L762 197L761 198L760 196M758 205L755 207L755 211L752 208L749 209L747 207L746 210L749 212L751 216L749 219L751 227L756 226L758 224L761 233L761 235L759 235L762 237M760 196L760 196M760 196L760 196M760 196L760 196M762 237L763 236L768 241L768 243L771 240L772 241L774 249L776 251L777 250L775 252L775 256L777 256L776 257L779 260L777 264L779 264M619 320L620 319L619 320M648 402L649 401L648 402M676 374L676 374" id="省界"/><path class="leaflet-interactive" stroke="#3388ff" stroke-opacity="0" stroke-width="3" stroke-linecap="round" stroke-linejoin="round" fill="#eee" fill-opacity="0.5" fill-rule="evenodd" d="M711 267L713 267L708 266L706 262L701 267L698 268L700 270L699 272L696 273L696 276L699 279L703 279L705 277L706 278L708 276L707 273L712 272L710 270L711 267z" id="北京市"/><path class="leaflet-interactive" stroke="#3388ff" stroke-opacity="0" stroke-width="3" stroke-linecap="round" stroke-linejoin="round" fill="#eee" fill-opacity="0.5" fill-rule="evenodd" d="M715 280L716 279L713 276L713 274L715 274L712 271L710 273L710 277L707 278L708 282L706 286L714 288L716 284L715 283L717 281L714 280zM715 280L715 280z" id="天津市"/><path class="leaflet-interactive" stroke="#3388ff" stroke-opacity="0" stroke-width="3" stroke-linecap="round" stroke-linejoin="round" fill="#eee" fill-opacity="0.5" fill-rule="evenodd" d="M712 267L710 269L715 274L713 274L713 276L720 285L727 279L727 276L731 274L729 268L727 268L724 265L724 263L727 260L719 259L719 251L718 252L716 250L717 249L715 245L709 247L706 253L700 253L695 255L695 257L692 256L692 253L690 251L688 251L686 257L683 258L683 262L687 270L689 270L684 273L688 275L688 281L684 283L681 288L681 292L684 294L685 297L682 303L683 304L680 308L683 311L692 314L694 312L695 313L695 309L699 305L700 301L703 299L704 300L707 296L711 296L716 291L713 288L709 288L706 286L708 282L706 277L704 279L698 279L696 277L696 274L700 270L698 268L701 267L706 262L708 266L712 267zM710 273L707 274L708 277L710 277L710 273zM715 280L714 280zM723 282L723 283z" id="河北省"/><path class="leaflet-interactive" stroke="#3388ff" stroke-opacity="0" stroke-width="3" stroke-linecap="round" stroke-linejoin="round" fill="#eee" fill-opacity="0.5" fill-rule="evenodd" d="M655 328L665 326L668 323L669 324L669 322L675 322L681 318L682 311L680 307L683 305L682 304L685 299L684 294L681 291L683 287L682 284L687 283L689 279L688 276L684 273L689 270L687 270L686 266L681 270L678 269L675 270L674 272L672 270L667 278L665 277L662 280L659 290L656 293L656 295L659 298L655 304L657 316L654 325L655 328z" id="山西省"/><path class="leaflet-interactive" stroke="#3388ff" stroke-opacity="0" stroke-width="3" stroke-linecap="round" stroke-linejoin="round" fill="#eee" fill-opacity="0.5" fill-rule="evenodd" d="M549 243L554 256L552 258L558 264L558 267L562 267L564 265L565 266L565 264L572 264L574 267L573 271L568 275L578 280L578 284L581 284L584 287L586 287L588 285L586 283L591 281L595 283L599 280L604 279L606 283L603 288L599 290L599 296L607 300L616 297L619 294L619 286L621 282L622 283L622 281L625 280L628 283L628 285L624 291L627 293L631 293L631 295L636 296L636 298L641 298L642 295L645 294L644 291L652 282L651 281L652 282L654 280L653 279L655 281L657 281L660 278L662 280L665 277L666 278L672 270L674 272L678 269L681 270L685 268L683 258L686 257L688 251L690 251L692 253L691 256L694 257L699 253L701 255L704 252L705 253L708 251L708 247L712 247L715 245L717 249L716 250L718 252L719 251L719 259L726 260L728 258L728 252L726 250L728 248L733 253L733 255L739 249L740 250L743 247L747 247L753 243L756 244L762 240L762 238L759 235L761 235L761 233L758 224L751 228L749 221L751 217L746 210L747 207L749 209L752 208L755 211L755 207L758 205L757 201L762 199L761 196L759 196L760 197L758 199L756 198L756 196L752 192L753 189L761 184L767 177L769 183L771 171L775 169L774 161L781 146L775 138L772 140L772 142L757 142L754 135L755 130L753 130L750 127L747 130L743 126L747 120L746 117L741 116L733 124L733 126L738 126L739 133L732 140L733 141L728 148L729 149L726 155L728 155L727 158L714 165L706 161L699 177L699 181L697 182L697 185L700 188L703 185L712 188L716 183L721 184L731 194L732 199L730 201L725 200L723 198L715 201L713 200L711 203L707 203L702 209L703 210L698 214L690 214L685 220L681 222L675 221L672 218L667 218L664 226L668 234L660 238L655 244L643 248L632 247L623 250L612 257L609 256L608 254L597 253L593 250L591 251L584 246L563 246L550 244z" id="内蒙古自治区"/><path class="leaflet-interactive" stroke="#3388ff" stroke-opacity="0" stroke-width="3" stroke-linecap="round" stroke-linejoin="round" fill="#eee" fill-opacity="0.5" fill-rule="evenodd" d="M761 276L765 276L772 268L773 269L779 264L779 260L776 257L777 256L775 256L775 252L777 250L776 251L774 249L774 245L771 240L768 243L768 240L763 236L761 241L758 242L759 243L752 243L752 245L750 244L747 247L743 247L733 255L733 253L728 248L726 250L728 252L728 257L724 262L724 265L727 268L729 268L731 274L737 271L737 269L742 264L747 264L751 268L748 271L749 272L744 276L745 277L742 279L746 281L746 283L745 282L745 284L744 283L742 287L747 284L748 285L747 284L753 279L761 276zM754 281L754 281zM751 282L751 282zM754 281L755 282L754 281zM755 284L754 283L755 284zM757 278L756 279L757 278zM753 281L753 282zM739 268L739 268zM757 279L757 279zM758 284L758 284zM762 276L763 276z" id="辽宁省"/><path class="leaflet-interactive" stroke="#3388ff" stroke-opacity="0" stroke-width="3" stroke-linecap="round" stroke-linejoin="round" fill="#eee" fill-opacity="0.5" fill-rule="evenodd" d="M810 248L812 241L814 241L818 247L818 245L816 244L820 243L823 240L824 237L816 234L816 230L814 232L812 230L808 232L807 235L805 235L801 229L800 224L797 227L798 228L795 229L792 223L789 224L790 219L788 217L780 217L778 213L774 215L772 213L769 214L765 210L765 206L763 204L759 204L755 207L755 211L752 208L749 209L747 207L746 210L749 212L751 217L749 219L751 227L753 228L758 224L761 233L761 235L759 235L761 237L763 236L766 239L767 238L767 241L769 243L771 240L772 241L774 249L776 251L777 250L775 252L775 256L777 256L776 257L779 260L779 264L782 263L788 254L792 258L799 259L797 252L805 252L808 247L810 248z" id="吉林省"/><path class="leaflet-interactive" stroke="#3388ff" stroke-opacity="0" stroke-width="3" stroke-linecap="round" stroke-linejoin="round" fill="#eee" fill-opacity="0.5" fill-rule="evenodd" d="M761 205L765 205L765 209L769 214L772 213L774 215L778 213L780 217L788 217L790 219L789 224L792 223L796 229L798 229L797 226L800 224L801 229L805 235L807 235L807 233L812 230L814 232L816 230L816 234L822 237L823 230L821 221L828 216L837 219L838 218L838 214L845 203L844 202L847 194L846 193L851 188L851 180L854 178L838 182L835 185L834 184L835 185L833 187L822 188L818 183L820 181L817 176L819 173L815 173L808 166L805 167L802 164L796 165L794 163L794 156L792 156L791 149L788 146L789 143L787 143L788 140L786 139L787 138L784 134L785 133L781 125L782 124L778 122L779 121L777 119L771 119L761 113L746 115L745 116L747 120L742 126L745 127L746 130L748 130L751 127L755 131L754 134L757 143L772 142L774 138L781 145L779 153L774 160L775 168L771 170L769 183L767 177L756 188L753 189L752 192L757 199L759 197L760 198L760 196L761 198L762 197L762 199L757 200L758 204L761 205z" id="黑龙江省"/><path class="leaflet-interactive" stroke="#3388ff" stroke-opacity="0" stroke-width="3" stroke-linecap="round" stroke-linejoin="round" fill="#eee" fill-opacity="0.5" fill-rule="evenodd" d="M740 362L744 366L749 363L744 358L742 358L740 362zM748 357L743 354L742 355L745 358L749 358zM747 360L745 358L747 360zM747 359L750 360L747 359zM746 358L745 358zM748 361L748 360zM748 360L748 360z" id="上海市"/><path class="leaflet-interactive" stroke="#3388ff" stroke-opacity="0" stroke-width="3" stroke-linecap="round" stroke-linejoin="round" fill="#eee" fill-opacity="0.5" fill-rule="evenodd" d="M711 329L710 330L707 325L703 327L710 333L713 333L715 337L717 337L716 342L718 342L720 346L724 344L726 346L725 349L721 347L722 350L719 354L721 356L722 355L722 357L724 357L722 360L728 360L727 361L731 361L737 365L744 357L742 356L743 354L748 357L748 354L740 346L736 333L728 327L726 323L723 324L720 330L718 330L716 327L714 329L711 329z" id="江苏省"/><path class="leaflet-interactive" stroke="#3388ff" stroke-opacity="0" stroke-width="3" stroke-linecap="round" stroke-linejoin="round" fill="#eee" fill-opacity="0.5" fill-rule="evenodd" d="M720 388L723 389L723 395L726 396L730 393L731 396L735 395L737 398L738 394L742 392L741 389L742 390L746 388L746 380L749 379L747 375L750 373L746 372L741 367L743 365L740 362L737 365L731 361L729 365L726 366L728 368L725 369L723 371L724 372L717 379L717 381L720 384L720 387zM750 372L751 373L751 371L749 370L750 372zM750 370L750 371zM751 375L751 375zM752 365L752 365zM750 369L751 370L750 369zM751 370L751 369zM749 380L749 379zM752 373L752 373zM752 368L752 368zM747 383L748 383zM751 373L751 374zM747 380L747 380zM742 394L742 394zM748 365L749 366L748 365zM748 386L748 386zM750 375L749 374L750 375zM752 372L752 373zM753 366L753 366zM748 386L748 386zM749 370L749 370zM752 372L752 372zM747 372L748 371L747 372zM741 395L741 395zM748 379L749 380L748 379zM749 374L749 375zM748 371L748 371zM748 369L748 369zM750 372L750 372zM751 375L751 374zM742 392L742 392zM755 371L755 371zM751 369L751 369zM751 373L751 373zM755 365L755 365zM741 391L742 390L741 391zM742 391L743 390L742 391zM752 372L752 372zM755 365L755 365zM750 372L751 372zM749 372L749 372zM741 391L741 390zM752 373L752 373zM750 372L750 372z" id="浙江省"/><path class="leaflet-interactive" stroke="#3388ff" stroke-opacity="0" stroke-width="3" stroke-linecap="round" stroke-linejoin="round" fill="#eee" fill-opacity="0.5" fill-rule="evenodd" d="M705 334L706 335L702 337L698 333L698 338L696 338L695 341L691 343L694 346L694 348L700 348L700 355L698 355L695 358L699 362L701 362L698 366L702 374L705 373L705 371L708 373L706 375L707 376L710 373L712 373L713 376L720 377L724 372L723 371L728 368L726 366L728 366L730 362L727 361L728 360L722 360L724 358L720 354L722 350L721 347L725 349L726 346L724 344L720 346L718 342L716 342L718 337L714 337L715 335L713 333L709 333L704 328L702 329L703 331L705 331L705 334zM723 358L724 358zM706 375L706 375zM696 349L696 349z" id="安徽省"/><path class="leaflet-interactive" stroke="#3388ff" stroke-opacity="0" stroke-width="3" stroke-linecap="round" stroke-linejoin="round" fill="#eee" fill-opacity="0.5" fill-rule="evenodd" d="M725 418L724 415L726 417L725 416L728 415L726 415L726 413L732 413L728 411L730 411L730 407L732 405L730 403L732 403L732 401L733 402L731 404L734 403L733 402L736 399L736 397L731 397L729 393L727 396L724 395L722 387L719 388L719 390L715 392L712 391L709 394L710 396L705 401L706 404L704 408L701 410L699 418L703 418L705 420L704 421L707 420L708 427L711 430L718 424L717 421L721 422L723 420L722 419L725 418zM720 422L719 423L720 422zM728 416L729 415L728 416zM729 412L729 412zM732 407L732 406zM718 423L718 422zM732 402L732 402zM718 422L717 421L718 422zM732 407L732 407zM730 407L729 407zM733 404L733 404zM730 412L730 411zM731 403L731 403zM734 403L734 403zM735 400L735 400zM734 401L734 401zM730 403L731 402L730 403z" id="福建省"/><path class="leaflet-interactive" stroke="#3388ff" stroke-opacity="0" stroke-width="3" stroke-linecap="round" stroke-linejoin="round" fill="#eee" fill-opacity="0.5" fill-rule="evenodd" d="M718 378L717 376L713 376L712 373L710 373L707 376L706 375L708 373L706 371L700 375L696 373L696 375L694 375L691 378L687 378L684 381L686 383L686 388L682 392L681 396L683 396L682 399L685 404L684 406L686 406L684 414L690 415L686 420L688 422L695 419L698 421L699 420L701 411L706 404L705 401L710 397L709 394L712 391L715 392L720 389L720 385L717 381L718 378z" id="江西省"/><path class="leaflet-interactive" stroke="#3388ff" stroke-opacity="0" stroke-width="3" stroke-linecap="round" stroke-linejoin="round" fill="#eee" fill-opacity="0.5" fill-rule="evenodd" d="M703 328L704 325L707 324L710 329L714 329L716 327L719 330L721 327L723 327L722 326L724 324L728 323L728 321L735 314L735 312L735 314L738 313L739 310L740 311L739 308L740 309L748 305L751 306L754 300L744 300L744 298L738 296L734 297L735 298L731 301L731 303L727 303L724 299L727 298L727 296L724 293L721 294L716 291L711 296L707 296L704 299L703 298L703 300L702 299L703 300L700 301L700 303L695 308L695 317L701 313L701 315L699 315L691 323L698 329L703 328zM738 295L739 295zM738 294L738 294zM741 310L740 310zM739 293L739 292zM740 291L740 290zM734 317L734 316zM738 295L737 294zM739 291L739 291zM745 298L745 298zM745 298L745 298zM745 298L745 298zM696 315L696 315z" id="山东省"/><path class="leaflet-interactive" stroke="#3388ff" stroke-opacity="0" stroke-width="3" stroke-linecap="round" stroke-linejoin="round" fill="#eee" fill-opacity="0.5" fill-rule="evenodd" d="M674 350L677 349L680 351L682 349L684 356L689 356L690 358L693 357L695 359L696 356L700 355L700 349L696 349L694 345L691 344L695 342L698 333L702 337L706 335L702 328L696 328L696 326L694 326L693 324L692 325L691 322L701 314L696 315L695 317L696 314L694 312L692 314L683 311L681 318L676 322L669 321L668 324L655 329L662 345L669 350L673 350zM682 350L682 351z" id="河南省"/><path class="leaflet-interactive" stroke="#3388ff" stroke-opacity="0" stroke-width="3" stroke-linecap="round" stroke-linejoin="round" fill="#eee" fill-opacity="0.5" fill-rule="evenodd" d="M661 342L648 342L651 345L653 345L652 348L649 347L648 351L649 356L653 359L654 363L647 367L639 367L641 370L639 374L641 374L644 377L643 378L645 377L646 380L647 377L649 375L650 376L650 374L657 375L657 371L667 373L670 376L674 376L676 374L677 377L681 373L681 379L683 381L686 378L692 378L691 377L697 373L700 375L701 374L701 370L699 368L699 364L701 362L697 361L693 357L690 358L689 355L684 356L682 350L669 350L666 347L665 348L661 342zM645 367L645 367zM661 342L661 342zM674 350L674 350zM675 374L676 374z" id="湖北省"/><path class="leaflet-interactive" stroke="#3388ff" stroke-opacity="0" stroke-width="3" stroke-linecap="round" stroke-linejoin="round" fill="#eee" fill-opacity="0.5" fill-rule="evenodd" d="M668 420L670 416L674 416L674 418L676 418L675 415L677 413L681 415L684 412L684 408L686 407L684 407L685 404L683 402L683 396L681 396L681 394L682 391L685 390L684 389L686 387L686 383L683 380L682 381L681 374L677 377L676 374L674 376L670 376L667 373L656 371L656 375L648 375L646 379L646 390L648 394L646 396L645 395L645 397L642 399L647 398L649 400L649 402L647 402L646 405L651 410L651 407L655 409L657 406L663 406L662 409L664 409L660 418L664 416L664 420L668 419zM648 402L648 402z" id="湖南省"/><path class="leaflet-interactive" stroke="#3388ff" stroke-opacity="0" stroke-width="3" stroke-linecap="round" stroke-linejoin="round" fill="#eee" fill-opacity="0.5" fill-rule="evenodd" d="M681 442L682 438L688 440L689 437L691 439L694 436L696 438L698 436L704 436L707 433L707 431L710 430L707 420L704 421L705 420L703 418L699 418L699 421L697 421L696 419L688 422L686 420L690 416L689 414L684 415L684 413L678 413L676 415L675 414L677 416L675 418L673 416L669 417L670 418L668 420L668 426L663 431L664 434L661 438L658 439L657 442L655 442L654 445L653 444L651 447L650 446L651 449L649 453L651 459L655 459L657 457L654 454L656 450L668 447L670 445L678 445L681 442zM709 431L709 431zM675 446L674 447L675 446zM672 447L673 447zM686 443L686 443zM656 451L657 452L657 450L656 451zM672 447L672 446zM656 452L654 452L657 452zM682 444L682 444zM682 444L682 444zM677 445L677 445zM683 440L683 440zM686 444L686 444zM686 444L685 444zM707 454L708 455L706 456L708 456L707 454zM676 445L676 445zM655 455L655 455zM657 453L657 453zM657 458L657 458zM700 451L701 452L700 451zM700 452L700 452zM699 437L699 437zM699 437L699 437z" id="广东省"/><path class="leaflet-interactive" stroke="#3388ff" stroke-opacity="0" stroke-width="3" stroke-linecap="round" stroke-linejoin="round" fill="#eee" fill-opacity="0.5" fill-rule="evenodd" d="M648 408L647 411L644 410L643 411L645 411L643 413L642 412L641 415L640 413L638 413L637 416L635 416L629 412L627 416L620 420L613 417L610 421L608 421L615 426L620 425L622 427L621 430L619 430L616 433L619 436L624 435L626 437L624 441L626 442L625 444L636 448L641 446L644 447L644 449L646 449L649 447L650 448L650 446L651 447L654 444L655 445L655 443L658 442L658 440L664 435L664 429L668 427L667 425L669 423L667 419L664 421L663 416L661 418L660 417L664 410L662 410L662 406L657 406L654 409L652 407L651 410L648 408zM613 418L613 418zM645 452L645 452z" id="广西壮族自治区"/><path class="leaflet-interactive" stroke="#3388ff" stroke-opacity="0" stroke-width="3" stroke-linecap="round" stroke-linejoin="round" fill="#eee" fill-opacity="0.5" fill-rule="evenodd" d="M653 461L646 462L641 467L641 473L643 475L649 477L657 471L657 468L661 464L658 460L653 460zM670 594L670 594zM678 560L679 559zM668 594L668 594zM664 486L665 485L664 486zM714 502L714 501zM670 593L670 593zM666 493L667 493zM665 493L666 493zM683 564L687 564L689 562L688 561L684 564zM684 553L685 554L684 553zM684 554L684 554zM668 492L668 492zM666 491L667 490L666 491zM670 554L670 554zM683 566L683 566zM686 554L686 554zM670 486L671 487L670 486zM690 541L690 541zM699 547L699 546zM689 545L690 544zM682 564L683 563zM648 566L650 564L652 565L648 565zM703 553L703 553zM672 495L673 494L672 495zM673 554L673 554zM688 537L689 537zM672 492L672 492zM704 541L705 541zM671 487L671 487zM664 491L665 491zM696 545L697 545zM690 559L690 559zM688 560L689 559zM694 557L695 558L694 557zM683 561L684 560zM696 549L696 549zM704 551L704 551zM681 553L682 552L681 553zM690 536L691 535L690 536zM689 533L689 532zM692 537L692 537zM665 491L665 491zM684 553L684 554zM652 562L652 561zM706 532L707 533L706 532zM666 490L666 490zM672 491L673 490L672 491zM666 494L667 494zM683 544L683 543zM691 559L691 559zM705 546L705 547zM695 543L695 543zM707 540L707 540zM690 493L690 493zM700 550L700 550zM682 551L682 551zM690 564L690 564zM688 538L689 538zM715 538L715 538zM686 542L686 542zM690 532L690 532zM706 540L706 540zM656 560L657 559L656 560zM664 556L664 556zM694 556L695 556zM678 560L678 560zM685 537L685 537zM711 542L711 541zM686 494L686 494zM657 560L657 560zM696 557L697 556zM665 564L665 564zM665 555L666 555zM656 562L656 562zM671 553L671 553zM704 546L704 546zM668 560L668 560zM688 498L688 498zM692 535L693 535zM685 495L685 495zM701 544L701 543zM711 539L711 538zM691 567L691 567zM675 553L675 553zM666 563L666 563zM670 554L670 554zM672 578L673 578zM689 554L689 553zM691 561L691 560zM676 557L676 557zM681 569L681 569zM706 492L706 492zM711 544L711 543zM676 465L676 465zM688 494L688 494zM683 468L683 468zM673 584L674 584zM665 561L665 561zM670 553L671 553zM675 562L676 562zM673 580L673 580zM672 580L672 579zM695 512L695 512zM681 542L681 542zM683 499L683 499zM676 585L676 585zM673 584L673 584zM671 580L671 580zM670 488L670 488zM670 497L670 497zM673 582L673 582zM672 579L672 579zM678 574L678 574zM702 548L702 548zM692 565L692 564zM665 562L665 562zM684 496L684 496zM692 494L692 495zM706 552L706 552zM673 491L674 491zM662 462L662 462zM698 541L699 541zM710 538L710 539zM674 492L674 492zM699 540L699 540zM672 548L673 548zM689 498L689 498zM711 535L711 536zM714 536L714 536zM686 549L686 549zM690 546L690 547zM673 577L673 577z" id="海南省"/><path class="leaflet-interactive" stroke="#3388ff" stroke-opacity="0" stroke-width="3" stroke-linecap="round" stroke-linejoin="round" fill="#eee" fill-opacity="0.5" fill-rule="evenodd" d="M623 386L624 383L625 386L629 382L630 383L632 379L634 379L635 382L639 380L639 384L641 384L641 386L644 389L647 385L647 381L645 377L643 377L643 375L639 374L641 370L639 368L641 368L642 366L645 367L653 364L654 361L652 358L650 356L646 356L644 353L640 351L640 353L638 353L640 357L636 361L637 360L635 365L631 365L632 366L628 372L626 372L625 369L622 370L618 368L618 370L616 370L618 372L615 378L618 379L618 381L620 381L623 385zM645 366L645 367zM617 371L617 371zM645 367L645 367zM628 372L628 372z" id="重庆市"/><path class="leaflet-interactive" stroke="#3388ff" stroke-opacity="0" stroke-width="3" stroke-linecap="round" stroke-linejoin="round" fill="#eee" fill-opacity="0.5" fill-rule="evenodd" d="M581 398L586 408L595 405L595 397L600 392L600 388L601 389L603 387L602 386L606 384L606 388L608 388L606 390L608 392L614 390L615 393L622 393L622 389L618 387L617 388L617 386L620 383L623 386L622 382L618 382L618 380L614 376L618 373L617 370L616 371L619 368L622 370L625 369L625 371L628 372L632 365L636 364L636 360L640 357L638 353L640 353L640 351L636 351L633 349L632 350L632 348L629 349L628 346L621 347L621 345L619 345L617 347L616 344L615 347L609 347L606 344L607 341L605 337L598 336L595 331L590 334L592 338L587 343L586 338L585 343L581 341L582 346L576 348L574 346L573 347L571 343L570 346L563 343L559 333L553 333L551 337L554 340L551 342L552 343L550 345L558 351L562 359L560 361L563 365L565 386L567 389L567 385L569 383L573 387L572 390L575 393L577 391L581 398zM622 370L622 370zM628 371L628 371zM616 370L616 370z" id="四川省"/><path class="leaflet-interactive" stroke="#3388ff" stroke-opacity="0" stroke-width="3" stroke-linecap="round" stroke-linejoin="round" fill="#eee" fill-opacity="0.5" fill-rule="evenodd" d="M646 386L645 389L643 389L642 386L641 387L641 385L639 384L639 380L635 382L635 380L632 379L631 382L629 382L625 386L624 383L623 386L620 383L617 386L617 388L618 387L622 389L622 392L616 392L613 396L610 397L607 395L605 397L603 395L601 399L602 404L609 403L606 412L609 415L611 415L608 419L610 421L614 417L620 421L622 419L621 418L627 416L629 412L631 413L631 415L636 416L638 414L637 413L641 414L641 412L643 413L645 411L643 411L644 410L647 411L648 406L646 406L646 402L648 402L648 398L643 399L645 397L644 396L648 394L646 386zM648 401L648 401zM648 402L649 402z" id="贵州省"/><path class="leaflet-interactive" stroke="#3388ff" stroke-opacity="0" stroke-width="3" stroke-linecap="round" stroke-linejoin="round" fill="#eee" fill-opacity="0.5" fill-rule="evenodd" d="M614 393L612 389L611 391L608 392L606 390L608 388L606 388L607 385L603 385L603 387L601 389L600 388L599 393L595 397L596 404L593 407L593 405L587 408L580 398L578 394L579 393L577 391L575 393L572 390L573 387L569 383L567 385L567 389L565 387L565 379L563 379L563 383L561 381L560 384L562 387L560 389L558 387L557 388L558 395L561 394L562 397L562 407L560 407L561 409L553 417L554 418L552 422L554 424L552 426L553 427L557 425L563 425L561 427L563 430L562 431L564 434L568 434L565 442L570 443L574 448L578 448L580 446L582 448L581 449L585 451L586 446L584 441L586 439L589 440L592 437L596 440L599 437L603 439L606 436L607 438L611 436L610 435L613 432L616 433L619 430L621 430L622 427L620 425L615 426L612 422L608 422L610 417L610 415L607 412L609 403L607 402L603 404L601 401L603 395L605 397L607 395L611 397L614 394z" id="云南省"/><path class="leaflet-interactive" stroke="#3388ff" stroke-opacity="0" stroke-width="3" stroke-linecap="round" stroke-linejoin="round" fill="#eee" fill-opacity="0.5" fill-rule="evenodd" d="M489 313L480 310L470 310L462 312L459 317L458 316L456 318L453 316L444 321L435 320L434 317L430 317L430 319L428 319L426 322L414 320L414 322L412 324L411 323L410 328L408 330L404 330L400 334L400 338L405 345L404 350L402 350L401 347L398 348L398 352L401 354L401 360L404 363L407 362L412 367L413 366L417 368L421 372L423 368L428 369L440 380L442 378L445 379L444 380L449 385L452 384L454 388L457 387L459 391L461 389L461 391L465 389L468 392L476 392L478 390L482 390L481 395L483 397L490 388L498 390L500 392L502 390L504 394L508 396L509 401L520 400L526 394L531 393L534 391L534 389L537 388L541 388L548 392L551 390L550 389L552 385L557 389L557 387L561 389L561 381L563 383L563 379L565 379L563 370L564 369L562 362L560 360L563 359L559 355L557 349L550 348L551 351L550 350L549 353L545 353L546 356L542 354L541 357L539 355L536 356L534 354L535 351L532 351L533 350L528 347L520 349L515 346L509 346L504 343L498 343L494 341L488 334L490 332L490 325L488 325L487 322L490 316L486 314L489 313z" id="西藏自治区"/><path class="leaflet-interactive" stroke="#3388ff" stroke-opacity="0" stroke-width="3" stroke-linecap="round" stroke-linejoin="round" fill="#eee" fill-opacity="0.5" fill-rule="evenodd" d="M655 328L654 325L657 318L655 304L659 298L656 292L660 288L660 284L662 281L661 278L657 281L653 279L654 280L652 282L651 281L652 282L645 289L645 294L643 294L641 298L637 298L634 295L630 299L630 305L637 309L638 308L641 311L641 321L634 321L634 325L624 323L625 326L623 328L626 331L624 331L625 333L623 335L625 338L619 338L618 341L620 342L618 345L616 345L620 345L622 347L628 346L629 349L632 348L632 350L633 349L636 352L639 351L649 356L648 349L650 347L654 347L651 344L650 345L650 343L648 342L657 341L658 343L660 341L655 328zM660 339L660 339zM621 346L621 346z" id="陕西省"/><path class="leaflet-interactive" stroke="#3388ff" stroke-opacity="0" stroke-width="3" stroke-linecap="round" stroke-linejoin="round" fill="#eee" fill-opacity="0.5" fill-rule="evenodd" d="M624 317L623 322L619 320L620 319L618 319L615 316L615 306L608 300L603 299L601 296L599 296L599 290L603 288L606 283L604 279L599 280L596 283L591 281L588 282L588 285L586 287L579 284L578 280L576 280L570 275L567 275L572 271L574 267L573 264L565 264L565 266L564 265L561 267L561 265L558 267L558 264L555 262L553 258L553 252L549 243L541 245L539 247L541 250L540 253L534 256L531 255L523 262L521 266L515 267L513 277L510 281L511 284L513 282L517 282L517 285L521 285L523 287L526 286L528 290L537 290L541 293L543 291L545 292L545 290L548 287L548 282L557 286L558 283L560 285L562 283L565 284L564 285L571 291L573 292L573 289L576 292L577 291L581 296L589 298L596 314L587 326L587 328L590 331L586 333L579 330L578 331L581 337L586 339L587 338L587 342L590 341L589 340L591 340L592 338L589 334L591 334L594 331L597 333L598 336L605 337L607 341L606 344L609 347L615 347L616 344L619 344L619 338L625 338L624 331L626 331L623 328L625 326L624 323L633 325L635 324L633 322L634 321L640 322L640 316L642 314L641 310L632 306L629 303L625 303L625 307L623 309L624 312L628 314L627 317L625 317zM620 319L621 319zM594 311L595 311zM621 320L621 320zM624 317L624 317z" id="甘肃省"/><path class="leaflet-interactive" stroke="#3388ff" stroke-opacity="0" stroke-width="3" stroke-linecap="round" stroke-linejoin="round" fill="#eee" fill-opacity="0.5" fill-rule="evenodd" d="M594 311L594 307L588 297L587 298L585 296L581 296L579 292L578 293L573 289L573 291L571 291L563 283L561 283L560 285L558 283L556 286L551 282L547 282L548 287L545 290L545 292L543 291L541 293L537 290L528 291L526 286L523 287L521 285L517 285L517 283L514 282L502 287L497 287L492 290L493 292L496 291L495 297L502 303L497 306L497 308L500 309L500 312L498 314L492 312L490 314L486 314L490 316L487 321L487 323L490 326L490 332L488 334L494 341L498 343L501 342L509 346L518 347L520 349L528 347L535 352L534 354L536 356L539 355L541 357L542 354L546 356L545 353L546 354L549 353L550 350L551 351L550 348L552 348L551 343L553 340L551 336L554 332L559 334L562 341L566 345L569 346L571 344L573 346L572 347L575 346L577 348L582 346L581 341L584 341L585 343L586 339L582 337L578 332L580 330L585 333L590 331L587 328L587 326L591 322L590 321L594 319L593 317L596 314L595 311z" id="青海省"/><path class="leaflet-interactive" stroke="#3388ff" stroke-opacity="0" stroke-width="3" stroke-linecap="round" stroke-linejoin="round" fill="#eee" fill-opacity="0.5" fill-rule="evenodd" d="M630 303L630 299L633 296L630 293L624 291L628 284L626 280L622 281L622 283L621 282L619 286L619 294L617 297L606 300L608 300L615 307L614 308L616 312L616 317L618 317L618 319L620 319L623 322L623 317L627 317L628 314L624 311L624 305L626 303L630 303zM620 319L620 320zM621 320L621 320z" id="宁夏回族自治区"/><path class="leaflet-interactive" stroke="#3388ff" stroke-opacity="0" stroke-width="3" stroke-linecap="round" stroke-linejoin="round" fill="#eee" fill-opacity="0.5" fill-rule="evenodd" d="M543 244L539 239L536 230L534 230L535 227L531 227L519 219L509 219L503 217L502 218L500 216L499 217L497 212L500 207L498 204L500 200L499 196L497 196L493 187L487 183L484 184L480 182L480 180L475 176L476 175L473 174L473 169L471 171L466 170L466 174L461 179L459 178L455 182L457 191L455 195L451 197L442 196L435 193L429 211L429 213L432 215L431 217L426 216L425 214L423 216L416 218L415 217L410 220L414 223L414 229L417 236L417 239L414 241L415 242L412 245L413 250L408 254L396 259L395 261L393 261L393 263L386 263L381 270L378 269L376 271L376 267L372 269L369 268L370 270L368 270L365 273L364 272L361 275L362 278L359 279L360 284L361 283L360 286L363 289L364 287L369 289L371 297L370 298L372 300L370 302L366 302L377 307L379 309L378 314L381 316L382 315L390 320L395 319L395 323L397 325L396 327L402 331L410 329L411 324L414 322L414 320L426 322L431 317L433 317L436 320L441 321L453 316L455 318L458 317L463 312L467 312L470 310L480 310L490 314L492 312L498 314L500 310L497 307L502 303L496 297L496 291L493 292L492 289L510 284L515 267L521 266L525 260L531 255L533 255L534 257L536 254L538 254L541 250L539 247L541 245z" id="新疆维吾尔自治区"/><path class="leaflet-interactive" stroke="#3388ff" stroke-opacity="0" stroke-width="3" stroke-linecap="round" stroke-linejoin="round" fill="#eee" fill-opacity="0.5" fill-rule="evenodd" d="M736 440L739 445L740 439L744 434L748 422L748 416L742 416L737 422L735 428L733 429L735 439zM769 409L769 409zM760 411L761 410L760 411zM730 430L729 431zM762 409L762 409zM729 429L728 430L729 429zM729 432L729 432zM729 429L729 429zM749 412L749 412zM744 438L745 438zM745 443L745 443zM749 413L750 413zM728 433L728 433zM735 441L736 441z" id="台湾省"/><path class="leaflet-interactive" stroke="#3388ff" stroke-opacity="0" stroke-width="3" stroke-linecap="round" stroke-linejoin="round" fill="#eee" fill-opacity="0.5" fill-rule="evenodd" d="M685 439L685 441L683 441L684 442L688 440L685 439zM685 442L686 442zM687 440L687 440zM687 440L687 440zM687 440L687 440zM687 441L687 441zM687 440L687 440zM687 441L687 441zM687 441L687 441z" id="香港特别行政区"/><path class="leaflet-interactive" stroke="#3388ff" stroke-opacity="0" stroke-width="3" stroke-linecap="round" stroke-linejoin="round" fill="#eee" fill-opacity="0.5" fill-rule="evenodd" d="M681 443L681 442zM681 442L681 442z" id="澳门特别行政区"/><path class="leaflet-interactive" stroke="#3388ff" stroke-opacity="0" stroke-width="3" stroke-linecap="round" stroke-linejoin="round" fill="#eee" fill-opacity="0.5" fill-rule="evenodd" d="M753 431L755 421L753 431zM742 454L748 446L742 454zM728 478L733 469L728 478zM725 503L725 494L725 503zM722 535L721 537L724 528L723 531zM697 568L702 561L697 568zM671 597L667 598L675 595L672 596zM638 576L639 577L638 569L638 576zM653 533L655 530L655 526L654 532zM651 501L647 493L650 499z" id="100000_JD"/></g></svg>