<svg xmlns="http://www.w3.org/2000/svg" xmlns:xlink="http://www.w3.org/1999/xlink" width="600"
    height="600">
    <g id="a1" name="a1">
        <path
            d="M46.92343461399696,269.2344532738699L106.15471984117471,269.2344532738699L106.15471984117471,309.2347672676607L46.92343461399696,309.2347672676607Z"
            id="a1" stroke-width="0.5" stroke="#000000" fill="transparent"></path>
    </g>
    <g id="a2" name="a2">
        <path
            d="M122.30848106479311,270.0036681551247L163.07809553562197,270.0036681551247L163.07809553562197,309.2347672676607L122.30848106479311,309.2347672676607Z"
            id="a2" stroke-width="0.5" stroke="#000000" fill="transparent"></path>
    </g>
    <g id="a3" name="a3">
        <path
            d="M181.5395851141575,270.0036681551247L229.2321878882201,270.0036681551247L229.2321878882201,310.0040035425169L181.5395851141575,310.0040035425169Z"
            id="a3" stroke-width="0.5" stroke="#000000" fill="transparent"></path>
    </g>
    <g id="b1" name="b1">
        <path
            d="M266.92472845864063,273.0806440125207L323.84799594782044,273.0806440125207L323.8479959478202,306.9270582194192L266.92472845864086,306.9270582194192Z"
            id="b1" stroke-width="0.5" stroke="#000000" fill="transparent"></path>
    </g>
    <g id="b2" name="b2">
        <path
            d="M360.00212164329264,273.0806440125207L413.0791584983551,273.0806440125207L413.0791584983549,308.4655309553335L360.00212164329264,308.4655309553335Z"
            id="b2" stroke-width="0.5" stroke="#000000" fill="transparent"></path>
    </g>
    <g id="b3" name="b3">
        <path
            d="M433.8486814081132,273.9113664448578L483.84866803108275,273.9113664448578L483.84866803108275,313.1424543582825L433.8486814081132,313.1424543582825Z"
            id="b3" stroke-width="0.5" stroke="#000000" fill="transparent"></path>
    </g>
    <g id="c1" name="c1">
        <path
            d="M501.54133758927424,276.9883179705564L546.1566341370542,276.9883179705564L546.1566341370542,312.373218269381L501.54133758927424,312.373218269381Z"
            id="c1" stroke-width="0.5" stroke="#000000" fill="transparent"></path>
    </g>
    <g id="c2" name="c2">
        <path
            d="M47.69303791658399,326.2194857131543L105.38577275993225,326.2194857131543L105.38577275993225,371.6042887241688L47.69303791658422,371.60428872416924Z"
            id="c2" stroke-width="0.5" stroke="#000000" fill="transparent"></path>
    </g>
    <g id="c3" name="c3">
        <path
            d="M123.07795710813457,329.2964037770406L160.00129748946347,329.2964037770406L160.00129748946324,373.9119883195475L123.0779571081348,373.9119883195475Z"
            id="c3" stroke-width="0.5" stroke="#000000" fill="transparent"></path>
    </g>
    <g id="d1" name="d1">
        <path
            d="M179.23201511131492,329.2964037770406L228.463000058508,329.2964037770406L228.463000058508,376.2197110566341L179.23201511131492,376.2197110566341Z"
            id="d1" stroke-width="0.5" stroke="#000000" fill="transparent"></path>
    </g>
    <g id="d2" name="d2">
        <path
            d="M271.5400561796464,328.5271683172251L316.92474391011365,328.5271683172251L316.92474391011365,375.4504545304236L271.5400561796464,375.4504545304236Z"
            stroke-width="0.5" stroke="#000000" fill="transparent"></path>
    </g>
    <g id="d3" name="d3">
        <path
            d="M360.00189790821014,338.00295395601495L415.386481200939,338.00295395601495L415.386481200939,378.77233517604975L360.00189790821037,378.7723351760503Z"
            stroke-width="0.5" stroke="#000000" fill="transparent"></path>
    </g>
    <g id="f1" name="f1">
        <path
            d="M440.7713912579625,338.8725777635275L481.5404672127286,338.8725777635275L481.5404672127286,377.33425154877943L440.7713912579625,377.33425154877943Z"
            stroke-width="0.5" stroke="#000000" fill="transparent"></path>
    </g>
    <g id="f2" name="f2">
        <path
            d="M502.310143220755,338.8725777635275L549.2328949492633,338.8725777635275L549.2328949492633,378.8727400486431L502.310143220755,378.8727400486431Z"
            stroke-width="0.5" stroke="#000000" fill="transparent"></path>
    </g>
    <g id="e3" name="e3">
        <path
            d="M76.15391587057661,203.46189937346753L145.38520660914833,203.46189937346753L145.38520660914833,249.616103752889L76.15391587057684,249.616103752889Z"
            stroke-width="0.5" stroke="#000000" fill="transparent"></path>
    </g>
    <g id="f3" name="f3">
        <path
            d="M204.6161497755336,203.15298732818064L276.1549274763231,203.15298732818064L276.1549274763231,255.46106026116558L204.61614977553404,255.46106026116627Z"
            stroke-width="0.5" stroke="#000000" fill="transparent"></path>
    </g>
    <g id="e1" name="e1">
        <path
            d="M327.69370114564936,211.09791970188144L410.00156182267847,211.09791970188144L410.00156182267847,254.9443511492766L327.6937011456496,254.9443511492766Z"
            stroke-width="0.5" stroke="#000000" fill="transparent"></path>
    </g>
    <g id="e2" name="e2">
        <path
            d="M432.30957556306544,215.71331801705094L496.9250438706281,215.71331801705094L496.92504387062763,254.9443511492766L432.30957556306566,254.9443511492766Z"
            stroke-width="0.5" stroke="#000000" fill="transparent"></path>
    </g>
    <g>
        <path
            d="M257.69343180140345,128.07640014126025L204.12130671898808,142.07241077775132L151.83246504710974,158.1447320353576L100.94330827487238,176.10738885501644L51.538391664681285,195.76951899985886L0,242.69295814274665L2.309467308078638,472.6928530805643L75.96476008938089,461.1122945437403L150.47833720743597,452.64580272066905L225.59110989882788,447.4280638955222L301.019131884583,445.54477826254697L376.4650299557827,447.02739517948464L451.6306622795778,451.8511329835012L526.2298480719869,459.9365415081803L600,471.1544032414524L591.5407121941814,256.53919935089664L545.3199265237592,225.65746675984383L496.92544719833745,195.76951899985886L439.6578244810082,174.85330743793384L380.58191092269476,156.29447489951792L319.8566387964297,140.36192284862534L257.69334214869286,127.3071469194357"
            stroke-width="0.5" stroke="#000000" fill="transparent"></path>
    </g>
</svg>