<svg xmlns="http://www.w3.org/2000/svg" xmlns:xlink="http://www.w3.org/1999/xlink" width="600" height="600"><g id="1B"><path d="M54.448808266303786,233.80618330686366L97.15373611170071,233.80618330686366L97.15373611170071,270.1052659113295L54.448808266303786,270.1052659113311Z" id="1B" stroke-width="0.5" stroke="#000000" fill="transparent"></path></g><g id="2B"><path d="M133.45266687433013,233.80618330686366L164.4137276943693,233.80618330686366L164.4137276943693,272.240504225882L133.45266687433104,272.240504225882Z" id="2B" stroke-width="0.5" stroke="#000000" fill="transparent"></path></g><g id="3B"><path d="M201.78039235360484,232.77038330195023L228.47091468118288,232.77038330195023L228.47091468118288,270.13708140934955L201.78039235360666,270.13708140935137Z" id="3B" stroke-width="0.5" stroke="#000000" fill="transparent"></path></g><g id="4B"><path d="M293.5956786921406,239.17607479634808L322.42136951409975,239.17607479634808L322.42136951409975,266.93419143461097L293.5956786921406,266.9341914346121Z" id="4B" stroke-width="0.5" stroke="#000000" fill="transparent"></path></g><g><path d="M362.99094166489886,241.31131542287062L401.4251501921517,241.31131542287062L401.4251501921517,271.20466785175336L362.99094166489976,271.20466785175336Z" stroke-width="0.5" stroke="#000000" fill="transparent"></path></g><g><path d="M431.3185668439128,246.6494171632521L476.15843604400834,246.6494171632521L476.15843604400834,276.5427622180953L431.3185668439128,276.5427622180953Z" stroke-width="0.5" stroke="#000000" fill="transparent"></path></g><g><path d="M59.78737466822986,304.29015983567956L107.83028556258614,304.29015983567956L107.83028556258614,334.1834240825283L59.78737466822986,334.1834240825283Z" stroke-width="0.5" stroke="#000000" fill="transparent"></path></g><g><path d="M137.7234210266106,306.43096562201686L177.2253488522647,306.43096562201686L177.2253488522647,340.5946588862864L137.7234210266106,340.5946588862864Z" stroke-width="0.5" stroke="#000000" fill="transparent"></path></g><g><path d="M206.05096682105886,308.5661675574004L243.41760872972282,308.5661675574004L243.41760872972282,344.8651860559348L206.05096682105977,344.8651860559348Z" stroke-width="0.5" stroke="#000000" fill="transparent"></path></g><g><path d="M289.3251574646338,305.3684128929533L328.8269581704044,305.3684128929533L328.8269581704044,349.14068146644786L289.3251574646347,349.14068146644786Z" stroke-width="0.5" stroke="#000000" fill="transparent"></path></g><g><path d="M357.6526928012345,310.67766233692464L401.42488746251456,310.67766233692464L401.42488746251456,352.3147473349461L357.6526928012345,352.3147473349461Z" stroke-width="0.5" stroke="#000000" fill="transparent"></path></g><g><path d="M436.65639216477484,312.8128963095876L476.1580330603829,312.8128963095876L476.1580330603829,356.5851412973841L436.65639216477484,356.5851412973841Z" stroke-width="0.5" stroke="#000000" fill="transparent"></path></g><g><path d="M204.9830385843834,57.65104696940125L92.88276251100888,115.30290967055703L9.094947017729282e-13,180.42805144010458L2.137409463626682,549.8226207768087L151.7101987241358,546.3726443123401L301.35983470486735,547.0094133330554L450.86324984685507,551.7286394354705L600.0000000000009,560.4986714167371L590.3940269075374,218.86241931489826L512.2368903541819,169.33393897576707L432.3866605047133,120.64104076188846L301.06919411151557,39.50132858326265L204.9830400104538,58.71864313600349" stroke-width="0.5" stroke="#000000" fill="transparent"></path></g></svg>